<svg version="1.1" xmlns="http://www.w3.org/2000/svg" xmlns:xlink="http://www.w3.org/1999/xlink" width="137.33334" height="131.97544" viewBox="0,0,137.33334,131.97544"><g transform="translate(-172.83333,-103.77456)"><g data-paper-data="{&quot;isPaintingLayer&quot;:true}" fill-rule="nonzero" stroke-linejoin="miter" stroke-miterlimit="10" stroke-dasharray="" stroke-dashoffset="0" style="mix-blend-mode: normal"><path d="M307.66667,192.66667c0,25.4051 -30.61892,38.33333 -66.33334,38.33333c-35.71442,0 -65.33334,-14.5949 -65.33334,-40c0,-25.4051 29.28558,-55.66666 65,-55.66666c35.71442,0 66.66667,31.92824 66.66667,57.33334z" fill="#ffd5ee" stroke="#000000" stroke-width="5" stroke-linecap="butt"/><path d="M307.16667,193.57778c0,25.4051 -30.61892,38.33333 -66.33334,38.33333c-35.71442,0 -65.33334,-14.5949 -65.33334,-40c0,-14.63873 17.49813,-6.93323 33.22877,-8.79166c11.56944,-1.36682 18.96923,-8.54167 34.10457,-8.54167c15.42681,0 23.52974,6.80003 34.57416,8.62032c14.52437,2.39384 29.75918,-4.05171 29.75918,10.37968z" fill="#ffffff" stroke="none" stroke-width="0" stroke-linecap="butt"/><path d="M307.00001,194.91667c0,25.4051 -30.61892,38.33333 -66.33333,38.33333c-35.71442,0 -65.33334,-14.5949 -65.33334,-40c0,-25.4051 29.28558,-55.66666 65,-55.66666c35.71442,0 66.66667,31.92824 66.66667,57.33334z" fill="none" stroke="#000000" stroke-width="5" stroke-linecap="butt"/><path d="M184.91328,165.76124c0,0 6.46864,-37.78969 15.05379,-43.01158c7.40698,-4.50527 29.69621,15.16158 29.69621,15.16158" fill="#ffd5ee" stroke="#000000" stroke-width="5" stroke-linecap="round"/><path d="M255.41328,138.16124c0,0 20.73924,-18.66685 28.14622,-14.16158c8.58515,5.22189 14.85378,43.61158 14.85378,43.61158" data-paper-data="{&quot;index&quot;:null}" fill="#ffd5ee" stroke="#000000" stroke-width="5" stroke-linecap="round"/><path d="M225.76216,175.49928c0,3.93503 -0.76112,7.125 -1.70001,7.125c-0.93888,0 -1.7,-3.18997 -1.7,-7.125c0,-3.93503 0.76111,-7.125 1.7,-7.125c0.93888,0 1.70001,3.18997 1.70001,7.125z" fill="#000000" stroke="#000000" stroke-width="5" stroke-linecap="butt"/><path d="M227.71459,154.9079c0,2.37482 -1.8804,4.3 -4.2,4.3c-2.31959,0 -4.2,-1.92517 -4.2,-4.3c0,-2.37482 1.88041,-4.3 4.2,-4.3c2.31959,0 4.2,1.92518 4.2,4.3z" fill="#ffffff" stroke="none" stroke-width="0" stroke-linecap="butt"/><path d="M233.18125,103.97457c0,-0.11046 -0.13432,-0.2 -0.3,-0.2c-0.16568,0 -0.3,0.08955 -0.3,0.2c0,0.11046 0.13431,0.2 0.3,0.2c0.16568,0 0.3,-0.08955 0.3,-0.2z" fill="#ffffff" stroke="none" stroke-width="0" stroke-linecap="butt"/><path d="M265.48125,154.54123c0,2.37482 -1.8804,4.3 -4.2,4.3c-2.31959,0 -4.2,-1.92517 -4.2,-4.3c0,-2.37482 1.8804,-4.3 4.2,-4.3c2.31959,0 4.2,1.92518 4.2,4.3z" fill="#ffffff" stroke="none" stroke-width="0" stroke-linecap="butt"/><path d="M210.98125,175.23171l-4.8,14.8" fill="none" stroke="#000000" stroke-width="5" stroke-linecap="round"/><path d="M201.76272,176.20314l-2.72432,8.4" fill="none" stroke="#000000" stroke-width="5" stroke-linecap="round"/><path d="M280.26697,190.17457l-4.8,-14.8" data-paper-data="{&quot;index&quot;:null}" fill="none" stroke="#000000" stroke-width="5" stroke-linecap="round"/><path d="M285.32411,177.48885l2.72432,8.4" data-paper-data="{&quot;index&quot;:null}" fill="none" stroke="#000000" stroke-width="5" stroke-linecap="round"/><path d="M239.7178,186.02219h7.33333" fill="none" stroke="#000000" stroke-width="10" stroke-linecap="round"/><path d="M253.94209,195.49135c0,0 -0.85749,0.98433 -1.42115,1.26395c-0.52775,0.26181 -1.86018,0.36384 -1.86018,0.36384c0,0 -2.79537,-0.73148 -3.86893,-1.3554c-0.96229,-0.55926 -2.27522,-2.2154 -2.27522,-2.2154l-0.2899,-3.44846" data-paper-data="{&quot;index&quot;:null}" fill="none" stroke="#000000" stroke-width="5" stroke-linecap="round"/><path d="M243.19209,190.34988l-0.2899,3.44846c0,0 -1.31293,1.65614 -2.27522,2.2154c-1.07355,0.62393 -3.86892,1.3554 -3.86892,1.3554c0,0 -1.33243,-0.10204 -1.86018,-0.36384c-0.56366,-0.27962 -1.42115,-1.26395 -1.42115,-1.26395" data-paper-data="{&quot;index&quot;:null}" fill="none" stroke="#000000" stroke-width="5" stroke-linecap="round"/><path d="M249.74996,200.3861c0,4.14213 -2.32437,7.25 -5.5,7.25c-3.17563,0 -6,-3.10787 -6,-7.25c0,-4.14213 2.57437,-4.5 5.75,-4.5c3.17564,0 5.75,0.35787 5.75,4.5z" fill="#ff9aa4" stroke="#000000" stroke-width="2.5" stroke-linecap="butt"/><path d="M264.42882,174.83262c0,3.93503 -0.76112,7.12499 -1.7,7.12499c-0.93889,0 -1.7,-3.18996 -1.7,-7.12499c0,-3.93503 0.76111,-7.125 1.7,-7.125c0.93889,0 1.7,3.18997 1.7,7.125z" fill="#000000" stroke="#000000" stroke-width="5" stroke-linecap="butt"/></g></g></svg>