<svg version="1.1" xmlns="http://www.w3.org/2000/svg" xmlns:xlink="http://www.w3.org/1999/xlink" width="137.33333" height="131.97543" viewBox="0,0,137.33333,131.97543"><g transform="translate(-171.33334,-114.01229)"><g data-paper-data="{&quot;isPaintingLayer&quot;:true}" fill-rule="nonzero" stroke-linejoin="miter" stroke-miterlimit="10" stroke-dasharray="" stroke-dashoffset="0" style="mix-blend-mode: normal"><path d="M306.16667,202.90439c0,25.4051 -30.61892,38.33333 -66.33334,38.33333c-35.71442,0 -65.33334,-14.5949 -65.33334,-40c0,-25.4051 29.28558,-55.66666 65,-55.66666c35.71442,0 66.66667,31.92824 66.66667,57.33334z" fill="#ffd5ee" stroke="#000000" stroke-width="5" stroke-linecap="butt"/><path d="M305.66667,203.8155c0,25.4051 -30.61892,38.33333 -66.33334,38.33333c-35.71442,0 -65.33334,-14.5949 -65.33334,-40c0,-14.63873 17.49813,-6.93323 33.22877,-8.79166c11.56944,-1.36682 18.96923,-8.54167 34.10457,-8.54167c15.42681,0 23.52974,6.80003 34.57416,8.62032c14.52437,2.39384 29.75918,-4.05171 29.75918,10.37968z" fill="#ffffff" stroke="none" stroke-width="0" stroke-linecap="butt"/><path d="M305.50001,205.15439c0,25.4051 -30.61892,38.33333 -66.33333,38.33333c-35.71442,0 -65.33334,-14.5949 -65.33334,-40c0,-25.4051 29.28558,-55.66666 65,-55.66666c35.71442,0 66.66667,31.92824 66.66667,57.33334z" fill="none" stroke="#000000" stroke-width="5" stroke-linecap="butt"/><path d="M183.41328,175.99896c0,0 6.46864,-37.78969 15.05379,-43.01158c7.40698,-4.50527 29.69621,15.16158 29.69621,15.16158" fill="#ffd5ee" stroke="#000000" stroke-width="5" stroke-linecap="round"/><path d="M253.91328,148.39896c0,0 20.73924,-18.66685 28.14622,-14.16158c8.58515,5.22189 14.85378,43.61158 14.85378,43.61158" data-paper-data="{&quot;index&quot;:null}" fill="#ffd5ee" stroke="#000000" stroke-width="5" stroke-linecap="round"/><path d="M224.26216,185.737c0,3.93503 -0.76112,7.125 -1.70001,7.125c-0.93888,0 -1.7,-3.18997 -1.7,-7.125c0,-3.93503 0.76111,-7.125 1.7,-7.125c0.93888,0 1.70001,3.18997 1.70001,7.125z" fill="#000000" stroke="#000000" stroke-width="5" stroke-linecap="butt"/><path d="M226.21459,165.14562c0,2.37482 -1.8804,4.3 -4.2,4.3c-2.31959,0 -4.2,-1.92517 -4.2,-4.3c0,-2.37482 1.88041,-4.3 4.2,-4.3c2.31959,0 4.2,1.92518 4.2,4.3z" fill="#ffffff" stroke="none" stroke-width="0" stroke-linecap="butt"/><path d="M231.38125,114.41229c-0.16569,0 -0.3,-0.08954 -0.3,-0.2c0,-0.11045 0.13432,-0.2 0.3,-0.2c0.16568,0 0.3,0.08954 0.3,0.2c0,0.11045 -0.13432,0.2 -0.3,0.2z" fill="#ffffff" stroke="none" stroke-width="0" stroke-linecap="butt"/><path d="M263.98125,164.77895c0,2.37482 -1.8804,4.3 -4.2,4.3c-2.31959,0 -4.2,-1.92517 -4.2,-4.3c0,-2.37482 1.8804,-4.3 4.2,-4.3c2.31959,0 4.2,1.92518 4.2,4.3z" fill="#ffffff" stroke="none" stroke-width="0" stroke-linecap="butt"/><path d="M204.68125,200.26943l4.8,-14.8" fill="none" stroke="#000000" stroke-width="5" stroke-linecap="round"/><path d="M200.26272,186.44086l-2.72432,8.4" fill="none" stroke="#000000" stroke-width="5" stroke-linecap="round"/><path d="M278.76697,200.41229l-4.8,-14.8" data-paper-data="{&quot;index&quot;:null}" fill="none" stroke="#000000" stroke-width="5" stroke-linecap="round"/><path d="M286.54843,196.12657l-2.72432,-8.4" data-paper-data="{&quot;index&quot;:null}" fill="none" stroke="#000000" stroke-width="5" stroke-linecap="round"/><path d="M238.2178,196.25991h7.33333" fill="none" stroke="#000000" stroke-width="10" stroke-linecap="round"/><path d="M252.44209,205.72907c0,0 -0.85749,0.98433 -1.42115,1.26395c-0.52775,0.26181 -1.86018,0.36384 -1.86018,0.36384c0,0 -2.79537,-0.73148 -3.86893,-1.3554c-0.96229,-0.55926 -2.27522,-2.2154 -2.27522,-2.2154l-0.2899,-3.44846" data-paper-data="{&quot;index&quot;:null}" fill="none" stroke="#000000" stroke-width="5" stroke-linecap="round"/><path d="M241.69209,200.5876l-0.2899,3.44846c0,0 -1.31293,1.65614 -2.27522,2.2154c-1.07355,0.62393 -3.86892,1.3554 -3.86892,1.3554c0,0 -1.33243,-0.10204 -1.86018,-0.36384c-0.56366,-0.27962 -1.42115,-1.26395 -1.42115,-1.26395" data-paper-data="{&quot;index&quot;:null}" fill="none" stroke="#000000" stroke-width="5" stroke-linecap="round"/><path d="M248.24996,210.62382c0,4.14213 -2.32437,7.25 -5.5,7.25c-3.17563,0 -6,-3.10787 -6,-7.25c0,-4.14213 2.57437,-4.5 5.75,-4.5c3.17564,0 5.75,0.35787 5.75,4.5z" fill="#ff9aa4" stroke="#000000" stroke-width="2.5" stroke-linecap="butt"/><path d="M262.92882,185.07034c0,3.93503 -0.76112,7.12499 -1.7,7.12499c-0.93889,0 -1.7,-3.18996 -1.7,-7.12499c0,-3.93503 0.76111,-7.125 1.7,-7.125c0.93889,0 1.7,3.18997 1.7,7.125z" fill="#000000" stroke="#000000" stroke-width="5" stroke-linecap="butt"/><path d="M193.70119,167.98257c0,0 3.6376,-21.2508 8.4654,-24.18729c4.16527,-2.53351 16.69948,8.52602 16.69948,8.52602" fill="#ffffff" stroke="none" stroke-width="0" stroke-linecap="round"/><path d="M210.60536,159.26281c0,3.48205 -1.52582,6.30482 -3.40801,6.30482c-1.88219,0 -3.40801,-2.82276 -3.40801,-6.30482c0,-3.48205 1.52582,-6.30482 3.40801,-6.30482c1.88219,0 3.40801,2.82276 3.40801,6.30482z" fill="#ffd5ee" stroke="none" stroke-width="0" stroke-linecap="butt"/><path d="M262.96963,153.66044c0,0 12.53421,-11.05953 16.69948,-8.52602c4.82781,2.9365 8.46541,24.18729 8.46541,24.18729" data-paper-data="{&quot;index&quot;:null}" fill="#ffffff" stroke="none" stroke-width="0" stroke-linecap="round"/><path d="M274.83623,154.41916c2.04612,0 3.70484,3.06861 3.70484,6.85394c0,3.78533 -1.65871,6.85395 -3.70484,6.85395c-2.04612,0 -3.70483,-3.06862 -3.70483,-6.85395c0,-3.78533 1.65871,-6.85394 3.70483,-6.85394z" data-paper-data="{&quot;index&quot;:null}" fill="#ffd5ee" stroke="none" stroke-width="0" stroke-linecap="butt"/></g></g></svg>