<svg xmlns="http://www.w3.org/2000/svg" viewBox="0 0 50 50"><path d="M9.433594 8C8.90625 8 8.472656 8.179688 8.101563 8.550781C6.265625 10.375 4.425781 12.191406 2.578125 14.003906C2.1875 14.386719 2 14.832031 2 15.367188C2.007813 23.40625 2.007813 39.382813 2.007813 40.882813L2.078125 41.996094L3.078125 41.996094C4.550781 41.996094 28.523438 41.992188 40.550781 42C41.09375 42 41.546875 41.8125 41.945313 41.421875C43.761719 39.609375 45.585938 37.808594 47.417969 36.015625C47.808594 35.625 48 35.171875 48 34.617188C47.992188 26.246094 48 9 48 9L48 8 Z M 19.09375 14C20.035156 14.003906 20.96875 14.082031 21.894531 14.320313C23.773438 14.800781 25.109375 15.902344 25.894531 17.660156C26.355469 18.695313 26.625 19.78125 26.78125 20.894531C26.945313 22.089844 27.019531 23.296875 26.992188 24.5C26.957031 26.0625 26.847656 27.613281 26.414063 29.125C26.109375 30.183594 25.644531 31.160156 24.871094 31.964844C24.578125 32.273438 24.238281 32.539063 23.902344 32.84375C24.679688 34.082031 25.464844 35.335938 26.28125 36.632813C25.292969 37.089844 24.328125 37.535156 23.316406 38C22.464844 36.621094 21.621094 35.253906 20.785156 33.90625C19.121094 34.132813 17.503906 34.082031 15.910156 33.664063C14.074219 33.183594 12.769531 32.09375 12.027344 30.359375C11.613281 29.394531 11.371094 28.394531 11.21875 27.367188C11.054688 26.269531 10.988281 25.160156 11 24.050781C11.019531 22.40625 11.117188 20.765625 11.589844 19.171875C11.761719 18.589844 11.980469 18.015625 12.234375 17.464844C12.964844 15.882813 14.21875 14.890625 15.890625 14.394531C16.628906 14.179688 17.378906 14.054688 18.144531 14.019531C18.460938 14.007813 18.777344 14 19.09375 14 Z M 31 16L34 16L34 20L38 20L38 23L34 23C34 23 33.988281 26.109375 34 28C34.003906 28.53125 34.019531 29.347656 34.0625 29.875C34.070313 30.015625 34.109375 30.152344 34.144531 30.292969C34.238281 30.628906 34.460938 30.851563 34.796875 30.921875C35.0625 30.976563 35.335938 31.003906 35.605469 31C36.230469 30.988281 37.019531 30.890625 37.644531 30.867188C37.703125 30.863281 37.757813 30.878906 37.863281 30.886719C37.929688 31.671875 37.972656 32.765625 38 33.582031C37.714844 33.636719 37.449219 33.6875 37.1875 33.734375C36.253906 33.902344 35.148438 34.050781 34.203125 33.96875C33.707031 33.921875 33.222656 33.820313 32.761719 33.625C32.15625 33.363281 31.726563 32.9375 31.46875 32.328125C31.160156 31.613281 31 30.769531 31 30L31 23L29 23L29 20L31 20 Z M 18.996094 17.019531C18.402344 17.019531 17.808594 17.089844 17.21875 17.234375C16.171875 17.496094 15.386719 18.050781 14.921875 18.9375C14.808594 19.148438 14.703125 19.367188 14.621094 19.589844C14.207031 20.664063 14.042969 21.78125 14.011719 22.910156C13.984375 23.953125 14.007813 25 14.0625 26.042969C14.117188 26.972656 14.308594 27.882813 14.667969 28.765625C15.113281 29.855469 15.960938 30.539063 17.21875 30.820313C18.417969 31.089844 19.621094 31.085938 20.816406 30.8125C21.992188 30.539063 22.828125 29.910156 23.25 28.878906C23.359375 28.617188 23.457031 28.347656 23.535156 28.074219C23.90625 26.789063 23.945313 25.476563 24 23.785156C23.941406 23.175781 23.882813 22.191406 23.757813 21.214844C23.65625 20.40625 23.425781 19.621094 23.019531 18.886719C22.546875 18.03125 21.789063 17.484375 20.769531 17.234375C20.179688 17.089844 19.585938 17.019531 18.996094 17.019531Z"/></svg>