<svg version="1.1" xmlns="http://www.w3.org/2000/svg" xmlns:xlink="http://www.w3.org/1999/xlink" width="46" height="34" viewBox="0,0,46,34"><g transform="translate(-217,-163)"><g data-paper-data="{&quot;isPaintingLayer&quot;:true}" fill="#aaff00" fill-rule="nonzero" stroke="none" stroke-width="1" stroke-linecap="butt" stroke-linejoin="miter" stroke-miterlimit="10" stroke-dasharray="" stroke-dashoffset="0" style="mix-blend-mode: normal"><path d="M263,163v1c0,0 -0.00781,17.24609 0,25.61719c0,0.55469 -0.19141,1.00781 -0.58203,1.39844c-1.83203,1.79297 -3.65625,3.59375 -5.47266,5.40625c-0.39844,0.39063 -0.85156,0.57813 -1.39453,0.57813c-12.02734,-0.00781 -36,-0.00391 -37.47266,-0.00391h-1l-0.07031,-1.11328c0,-1.5 0,-17.47656 -0.00781,-25.51562c0,-0.53516 0.1875,-0.98047 0.57813,-1.36328c1.84766,-1.8125 3.6875,-3.62891 5.52344,-5.45312c0.37109,-0.37109 0.80469,-0.55078 1.33203,-0.55078zM233.14453,169.01953c-0.76562,0.03516 -1.51562,0.16016 -2.25391,0.375c-1.67187,0.49609 -2.92578,1.48828 -3.65625,3.07031c-0.25391,0.55078 -0.47266,1.125 -0.64453,1.70703c-0.47266,1.59375 -0.57031,3.23438 -0.58984,4.87891c-0.01172,1.10938 0.05469,2.21875 0.21875,3.31641c0.15234,1.02734 0.39453,2.02734 0.80859,2.99219c0.74219,1.73438 2.04688,2.82422 3.88281,3.30469c1.59375,0.41797 3.21094,0.46875 4.875,0.24219c0.83594,1.34766 1.67969,2.71484 2.53125,4.09375c1.01172,-0.46484 1.97656,-0.91016 2.96484,-1.36719c-0.81641,-1.29687 -1.60156,-2.55078 -2.37891,-3.78906c0.33594,-0.30469 0.67578,-0.57031 0.96875,-0.87891c0.77344,-0.80469 1.23828,-1.78125 1.54297,-2.83984c0.43359,-1.51172 0.54297,-3.0625 0.57813,-4.625c0.02734,-1.20312 -0.04687,-2.41016 -0.21094,-3.60547c-0.15625,-1.11328 -0.42578,-2.19922 -0.88672,-3.23437c-0.78516,-1.75781 -2.12109,-2.85937 -4,-3.33984c-0.92578,-0.23828 -1.85937,-0.31641 -2.80078,-0.32031c-0.31641,0 -0.63281,0.00781 -0.94922,0.01953zM246,175h-2v3h2v7c0,0.76953 0.16016,1.61328 0.46875,2.32813c0.25781,0.60938 0.6875,1.03516 1.29297,1.29688c0.46094,0.19531 0.94531,0.29688 1.44141,0.34375c0.94531,0.08203 2.05078,-0.06641 2.98438,-0.23437c0.26172,-0.04687 0.52734,-0.09766 0.8125,-0.15234c-0.02734,-0.81641 -0.07031,-1.91016 -0.13672,-2.69531c-0.10547,-0.00781 -0.16016,-0.02344 -0.21875,-0.01953c-0.625,0.02344 -1.41406,0.12109 -2.03906,0.13281c-0.26953,0.00391 -0.54297,-0.02344 -0.80859,-0.07812c-0.33594,-0.07031 -0.55859,-0.29297 -0.65234,-0.62891c-0.03516,-0.14062 -0.07422,-0.27734 -0.08203,-0.41797c-0.04297,-0.52734 -0.05859,-1.34375 -0.0625,-1.875c-0.01172,-1.89062 0,-5 0,-5h4v-3h-4v-4h-3zM235.76953,172.23438c1.01953,0.25 1.77734,0.79688 2.25,1.65234c0.40625,0.73438 0.63672,1.51953 0.73828,2.32813c0.125,0.97656 0.18359,1.96094 0.24219,2.57031c-0.05469,1.69141 -0.09375,3.00391 -0.46484,4.28906c-0.07812,0.27344 -0.17578,0.54297 -0.28516,0.80469c-0.42187,1.03125 -1.25781,1.66016 -2.43359,1.93359c-1.19531,0.27344 -2.39844,0.27734 -3.59766,0.00781c-1.25781,-0.28125 -2.10547,-0.96484 -2.55078,-2.05469c-0.35937,-0.88281 -0.55078,-1.79297 -0.60547,-2.72266c-0.05469,-1.04297 -0.07812,-2.08984 -0.05078,-3.13281c0.03125,-1.12891 0.19531,-2.24609 0.60938,-3.32031c0.08203,-0.22266 0.1875,-0.44141 0.30078,-0.65234c0.46484,-0.88672 1.25,-1.44141 2.29688,-1.70312c0.58984,-0.14453 1.18359,-0.21484 1.77734,-0.21484c0.58984,0 1.18359,0.07031 1.77344,0.21484z"/></g></g></svg>